<svg width="746" height="541" viewBox="0 0 746 541" fill="none" xmlns="http://www.w3.org/2000/svg">
<path d="M168.429 109.143H-88V342.714H168.429V109.143Z" stroke="white" stroke-opacity="0.18" stroke-width="2"/>
<path d="M151.333 124.714H-70.9047V327.143H151.333V124.714Z" stroke="white" stroke-opacity="0.18" stroke-width="2"/>
<path d="M134.238 140.286H-53.8095V311.571H134.238V140.286Z" stroke="white" stroke-opacity="0.18" stroke-width="2"/>
<path d="M117.143 155.857H-36.7144V296H117.143V155.857Z" stroke="white" stroke-opacity="0.18" stroke-width="2"/>
<path d="M100.047 171.429H-19.6192V280.429H100.047V171.429Z" stroke="white" stroke-opacity="0.18" stroke-width="2"/>
<path d="M82.9525 187H-2.52368V264.857H82.9525V187Z" stroke="white" stroke-opacity="0.18" stroke-width="2"/>
<path d="M65.8572 202.571H14.5715V249.286H65.8572V202.571Z" stroke="white" stroke-opacity="0.18" stroke-width="2"/>
<path d="M48.762 218.143H31.6668V233.714H48.762V218.143Z" stroke="white" stroke-opacity="0.18" stroke-width="2"/>
<path d="M168.429 -15.4286H48.7618V93.5714H168.429V-15.4286Z" stroke="white" stroke-opacity="0.18" stroke-width="2"/>
<path d="M151.333 0.142883H65.8571V78H151.333V0.142883Z" stroke="white" stroke-opacity="0.18" stroke-width="2"/>
<path d="M134.238 15.7143H82.9524V62.4286H134.238V15.7143Z" stroke="white" stroke-opacity="0.18" stroke-width="2"/>
<path d="M117.143 31.2858H100.048V46.8572H117.143V31.2858Z" stroke="white" stroke-opacity="0.18" stroke-width="2"/>
<path d="M441.952 -15.4286H185.524V218.143H441.952V-15.4286Z" stroke="white" stroke-opacity="0.18" stroke-width="2"/>
<path d="M424.857 0.142883H202.619V202.571H424.857V0.142883Z" stroke="white" stroke-opacity="0.18" stroke-width="2"/>
<path d="M407.762 15.7143H219.714V187H407.762V15.7143Z" stroke="white" stroke-opacity="0.18" stroke-width="2"/>
<path d="M390.667 31.2858H236.809V171.429H390.667V31.2858Z" stroke="white" stroke-opacity="0.18" stroke-width="2"/>
<path d="M373.571 46.8572H253.905V155.857H373.571V46.8572Z" stroke="white" stroke-opacity="0.18" stroke-width="2"/>
<path d="M356.476 62.4286H271V140.286H356.476V62.4286Z" stroke="white" stroke-opacity="0.18" stroke-width="2"/>
<path d="M339.381 78H288.095V124.714H339.381V78Z" stroke="white" stroke-opacity="0.18" stroke-width="2"/>
<path d="M322.286 93.5714H305.19V109.143H322.286V93.5714Z" stroke="white" stroke-opacity="0.18" stroke-width="2"/>
<path d="M305.191 233.714H185.524V342.714H305.191V233.714Z" stroke="white" stroke-opacity="0.18" stroke-width="2"/>
<path d="M288.095 249.286H202.619V327.143H288.095V249.286Z" stroke="white" stroke-opacity="0.18" stroke-width="2"/>
<path d="M271 264.857H219.714V311.571H271V264.857Z" stroke="white" stroke-opacity="0.18" stroke-width="2"/>
<path d="M253.905 280.429H236.809V296H253.905V280.429Z" stroke="white" stroke-opacity="0.18" stroke-width="2"/>
<path d="M715.476 -140H459.048V93.5714H715.476V-140Z" stroke="white" stroke-opacity="0.18" stroke-width="2"/>
<path d="M698.381 -124.429H476.143V78H698.381V-124.429Z" stroke="white" stroke-opacity="0.18" stroke-width="2"/>
<path d="M681.286 -108.857H493.238V62.4286H681.286V-108.857Z" stroke="white" stroke-opacity="0.18" stroke-width="2"/>
<path d="M664.19 -93.2857H510.333V46.8571H664.19V-93.2857Z" stroke="white" stroke-opacity="0.18" stroke-width="2"/>
<path d="M647.095 -77.7143H527.429V31.2857H647.095V-77.7143Z" stroke="white" stroke-opacity="0.18" stroke-width="2"/>
<path d="M630 -62.1429H544.524V15.7143H630V-62.1429Z" stroke="white" stroke-opacity="0.18" stroke-width="2"/>
<path d="M612.905 -46.5714H561.619V0.142879H612.905V-46.5714Z" stroke="white" stroke-opacity="0.18" stroke-width="2"/>
<path d="M578.714 109.143H459.048V218.143H578.714V109.143Z" stroke="white" stroke-opacity="0.18" stroke-width="2"/>
<path d="M561.619 124.714H476.143V202.572H561.619V124.714Z" stroke="white" stroke-opacity="0.18" stroke-width="2"/>
<path d="M544.524 140.286H493.238V187H544.524V140.286Z" stroke="white" stroke-opacity="0.18" stroke-width="2"/>
<path d="M527.429 155.857H510.333V171.429H527.429V155.857Z" stroke="white" stroke-opacity="0.18" stroke-width="2"/>
<path d="M305.19 358.286H48.7618V591.857H305.19V358.286Z" stroke="white" stroke-opacity="0.18" stroke-width="2"/>
<path d="M288.095 373.857H65.8571V576.286H288.095V373.857Z" stroke="white" stroke-opacity="0.18" stroke-width="2"/>
<path d="M271 389.429H82.9524V560.714H271V389.429Z" stroke="white" stroke-opacity="0.18" stroke-width="2"/>
<path d="M253.905 405H100.048V545.143H253.905V405Z" stroke="white" stroke-opacity="0.18" stroke-width="2"/>
<path d="M236.81 420.571H117.143V529.571H236.81V420.571Z" stroke="white" stroke-opacity="0.18" stroke-width="2"/>
<path d="M219.714 436.143H134.238V514H219.714V436.143Z" stroke="white" stroke-opacity="0.18" stroke-width="2"/>
<path d="M202.619 451.714H151.333V498.429H202.619V451.714Z" stroke="white" stroke-opacity="0.18" stroke-width="2"/>
<path d="M185.524 467.286H168.428V482.857H185.524V467.286Z" stroke="white" stroke-opacity="0.18" stroke-width="2"/>
<path d="M989 358.286H732.572V591.857H989V358.286Z" stroke="white" stroke-opacity="0.18" stroke-width="2"/>
<path d="M578.714 233.714H322.286V467.286H578.714V233.714Z" stroke="white" stroke-opacity="0.18" stroke-width="2"/>
<path d="M561.619 249.286H339.381V451.714H561.619V249.286Z" stroke="white" stroke-opacity="0.18" stroke-width="2"/>
<path d="M544.524 264.857H356.476V436.143H544.524V264.857Z" stroke="white" stroke-opacity="0.18" stroke-width="2"/>
<path d="M527.428 280.429H373.571V420.571H527.428V280.429Z" stroke="white" stroke-opacity="0.18" stroke-width="2"/>
<path d="M510.333 296H390.667V405H510.333V296Z" stroke="white" stroke-opacity="0.18" stroke-width="2"/>
<path d="M493.238 311.571H407.762V389.429H493.238V311.571Z" stroke="white" stroke-opacity="0.18" stroke-width="2"/>
<path d="M476.143 327.143H424.857V373.857H476.143V327.143Z" stroke="white" stroke-opacity="0.18" stroke-width="2"/>
<path d="M459.048 342.714H441.952V358.286H459.048V342.714Z" stroke="white" stroke-opacity="0.18" stroke-width="2"/>
<path d="M441.952 482.857H322.286V591.857H441.952V482.857Z" stroke="white" stroke-opacity="0.18" stroke-width="2"/>
<path d="M424.857 498.429H339.381V576.286H424.857V498.429Z" stroke="white" stroke-opacity="0.18" stroke-width="2"/>
<path d="M407.762 514H356.476V560.714H407.762V514Z" stroke="white" stroke-opacity="0.18" stroke-width="2"/>
<path d="M390.667 529.571H373.571V545.143H390.667V529.571Z" stroke="white" stroke-opacity="0.18" stroke-width="2"/>
<path d="M715.476 482.857H459.048V716.429H715.476V482.857Z" stroke="white" stroke-opacity="0.18" stroke-width="2"/>
<path d="M698.381 498.429H476.143V700.857H698.381V498.429Z" stroke="white" stroke-opacity="0.18" stroke-width="2"/>
<path d="M681.286 514H493.238V685.286H681.286V514Z" stroke="white" stroke-opacity="0.18" stroke-width="2"/>
<path d="M664.19 529.571H510.333V669.714H664.19V529.571Z" stroke="white" stroke-opacity="0.18" stroke-width="2"/>
<path d="M852.238 109.143H595.81V342.714H852.238V109.143Z" stroke="white" stroke-opacity="0.18" stroke-width="2"/>
<path d="M835.143 124.714H612.905V327.143H835.143V124.714Z" stroke="white" stroke-opacity="0.18" stroke-width="2"/>
<path d="M818.048 140.286H630V311.571H818.048V140.286Z" stroke="white" stroke-opacity="0.18" stroke-width="2"/>
<path d="M800.952 155.857H647.095V296H800.952V155.857Z" stroke="white" stroke-opacity="0.18" stroke-width="2"/>
<path d="M783.857 171.429H664.19V280.429H783.857V171.429Z" stroke="white" stroke-opacity="0.18" stroke-width="2"/>
<path d="M766.762 187H681.286V264.857H766.762V187Z" stroke="white" stroke-opacity="0.18" stroke-width="2"/>
<path d="M749.667 202.571H698.381V249.286H749.667V202.571Z" stroke="white" stroke-opacity="0.18" stroke-width="2"/>
<path d="M732.571 218.143H715.476V233.714H732.571V218.143Z" stroke="white" stroke-opacity="0.18" stroke-width="2"/>
<path d="M715.476 358.286H595.81V467.286H715.476V358.286Z" stroke="white" stroke-opacity="0.18" stroke-width="2"/>
<path d="M698.381 373.857H612.905V451.714H698.381V373.857Z" stroke="white" stroke-opacity="0.18" stroke-width="2"/>
<path d="M681.286 389.429H630V436.143H681.286V389.429Z" stroke="white" stroke-opacity="0.18" stroke-width="2"/>
<path d="M664.19 405H647.095V420.571H664.19V405Z" stroke="white" stroke-opacity="0.18" stroke-width="2"/>
<path d="M852.238 -15.4286H732.572V93.5714H852.238V-15.4286Z" stroke="white" stroke-opacity="0.18" stroke-width="2"/>
</svg>
