<svg width="26" height="24" viewBox="0 0 26 24" fill="none" xmlns="http://www.w3.org/2000/svg">
<path d="M18.1587 8.57143C18.1587 3.83571 14.0948 0 9.07936 0C4.06389 0 0 3.83571 0 8.57143C0 10.4089 0.615476 12.1018 1.65873 13.5C1.07381 15.1179 0.109127 16.4036 0.0960317 16.4196C0 16.5429 -0.0261905 16.725 0.0305556 16.8857C0.0873016 17.0464 0.209524 17.1429 0.349206 17.1429C1.94683 17.1429 3.26944 16.4839 4.22103 15.8036C5.62659 16.6446 7.28968 17.1429 9.07936 17.1429C14.0948 17.1429 18.1587 13.3071 18.1587 8.57143ZM23.4841 20.3571C24.5274 18.9643 25.1429 17.2661 25.1429 15.4286C25.1429 11.8446 22.8075 8.775 19.4988 7.49464C19.5381 7.84821 19.5556 8.20714 19.5556 8.57143C19.5556 14.2446 14.8544 18.8571 9.07936 18.8571C8.60794 18.8571 8.1496 18.8143 7.69563 18.7554C9.07063 21.8357 12.3008 24 16.0635 24C17.8532 24 19.5163 23.5071 20.9218 22.6607C21.8734 23.3411 23.196 24 24.7936 24C24.9333 24 25.0599 23.8982 25.1123 23.7429C25.169 23.5875 25.1429 23.4054 25.0468 23.2768C25.0337 23.2607 24.069 21.9804 23.4841 20.3571Z" fill="#1D1D35"/>
</svg>
