<svg width="32" height="24" viewBox="0 0 32 24" fill="none" xmlns="http://www.w3.org/2000/svg">
<path d="M9.6 12C12.695 12 15.2 9.31607 15.2 6C15.2 2.68393 12.695 0 9.6 0C6.505 0 4 2.68393 4 6C4 9.31607 6.505 12 9.6 12ZM13.44 13.7143H13.025C11.985 14.25 10.83 14.5714 9.6 14.5714C8.37 14.5714 7.22 14.25 6.175 13.7143H5.76C2.58 13.7143 0 16.4786 0 19.8857V21.4286C0 22.8482 1.075 24 2.4 24H16.8C18.125 24 19.2 22.8482 19.2 21.4286V19.8857C19.2 16.4786 16.62 13.7143 13.44 13.7143ZM24 12C26.65 12 28.8 9.69643 28.8 6.85714C28.8 4.01786 26.65 1.71429 24 1.71429C21.35 1.71429 19.2 4.01786 19.2 6.85714C19.2 9.69643 21.35 12 24 12ZM26.4 13.7143H26.21C25.515 13.9714 24.78 14.1429 24 14.1429C23.22 14.1429 22.485 13.9714 21.79 13.7143H21.6C20.58 13.7143 19.64 14.0304 18.815 14.5393C20.035 15.9482 20.8 17.8179 20.8 19.8857V21.9429C20.8 22.0607 20.775 22.1732 20.77 22.2857H29.6C30.925 22.2857 32 21.1339 32 19.7143C32 16.3982 29.495 13.7143 26.4 13.7143Z" fill="#1D1D35"/>
</svg>
